<svg width="128" height="128" viewBox="0 0 128 128" fill="none" xmlns="http://www.w3.org/2000/svg">

  <!-- ═══ CROWN (wide dome) ═══ -->
  <polygon points="40,5 64,3 88,5 64,14" fill="#7c3aed"/>
  <polygon points="40,5 22,12 44,18" fill="#6d28d9"/>
  <polygon points="88,5 106,12 84,18" fill="#6d28d9"/>
  <polygon points="40,5 44,18 64,14" fill="#5b21b6"/>
  <polygon points="88,5 84,18 64,14" fill="#5b21b6"/>

  <!-- ═══ UPPER HEAD (wide) ═══ -->
  <polygon points="22,12 12,26 36,26" fill="#4c1d95"/>
  <polygon points="22,12 36,26 44,18" fill="#5b21b6"/>
  <polygon points="106,12 116,26 92,26" fill="#4c1d95"/>
  <polygon points="106,12 92,26 84,18" fill="#5b21b6"/>
  <polygon points="44,18 36,26 56,30" fill="#3b1580"/>
  <polygon points="84,18 92,26 72,30" fill="#3b1580"/>
  <polygon points="44,18 56,30 64,14" fill="#4c1d95"/>
  <polygon points="84,18 72,30 64,14" fill="#4c1d95"/>
  <!-- Forehead center V (dark mask) -->
  <polygon points="64,14 56,30 64,28" fill="#3b1580"/>
  <polygon points="64,14 72,30 64,28" fill="#3b1580"/>

  <!-- ═══ BROW / MASK AREA ═══ -->
  <polygon points="12,26 6,42 30,40" fill="#2e1065"/>
  <polygon points="12,26 30,40 36,26" fill="#2e1065"/>
  <polygon points="116,26 122,42 98,40" fill="#2e1065"/>
  <polygon points="116,26 98,40 92,26" fill="#2e1065"/>
  <!-- Dark V mask descending to beak -->
  <polygon points="36,26 30,40 48,38" fill="#1e0a4a"/>
  <polygon points="36,26 48,38 56,30" fill="#251055"/>
  <polygon points="92,26 98,40 80,38" fill="#1e0a4a"/>
  <polygon points="92,26 80,38 72,30" fill="#251055"/>

  <!-- ═══ BEAK (large, dominant) ═══ -->
  <!-- Upper beak / cere area -->
  <polygon points="56,30 64,28 60,44" fill="#9494a6"/>
  <polygon points="72,30 64,28 68,44" fill="#8a8a9c"/>
  <polygon points="60,44 64,28 68,44" fill="#7a7a8c"/>
  <!-- Beak ridge -->
  <polygon points="60,44 68,44 64,60" fill="#6b6b7d"/>
  <!-- Wide beak flanges -->
  <polygon points="56,30 60,44 46,42" fill="#7a7a8c"/>
  <polygon points="72,30 68,44 82,42" fill="#6b6b7d"/>
  <polygon points="46,42 60,44 52,56" fill="#5e5e6e"/>
  <polygon points="82,42 68,44 76,56" fill="#52525e"/>
  <!-- Lower beak -->
  <polygon points="52,56 60,44 64,60" fill="#52525e"/>
  <polygon points="76,56 68,44 64,60" fill="#4a4a56"/>
  <polygon points="52,56 64,60 64,88" fill="#3f3f4a"/>
  <polygon points="76,56 64,60 64,88" fill="#353540"/>

  <!-- ═══ EYE AREA / CHEEKS ═══ -->
  <!-- Left cheek around eye -->
  <polygon points="30,40 6,42 8,58" fill="#1e0a4a"/>
  <polygon points="30,40 8,58 32,54" fill="#1a0840"/>
  <polygon points="48,38 30,40 32,54" fill="#1e0a4a"/>
  <polygon points="48,38 32,54 46,42" fill="#251055"/>
  <!-- Right cheek around eye -->
  <polygon points="98,40 122,42 120,58" fill="#1e0a4a"/>
  <polygon points="98,40 120,58 96,54" fill="#1a0840"/>
  <polygon points="80,38 98,40 96,54" fill="#1e0a4a"/>
  <polygon points="80,38 96,54 82,42" fill="#251055"/>

  <!-- ═══ LOWER CHEEKS ═══ -->
  <polygon points="8,58 4,72 26,66" fill="#1a0840"/>
  <polygon points="8,58 26,66 32,54" fill="#1e0a4a"/>
  <polygon points="120,58 124,72 102,66" fill="#1a0840"/>
  <polygon points="120,58 102,66 96,54" fill="#1e0a4a"/>
  <polygon points="32,54 26,66 42,68" fill="#150835"/>
  <polygon points="32,54 42,68 46,42" fill="#1e0a4a"/>
  <polygon points="96,54 102,66 86,68" fill="#150835"/>
  <polygon points="96,54 86,68 82,42" fill="#1e0a4a"/>

  <!-- ═══ CHIN / BELOW BEAK ═══ -->
  <polygon points="46,42 42,68 52,56" fill="#1e0a4a"/>
  <polygon points="82,42 86,68 76,56" fill="#1e0a4a"/>
  <polygon points="52,56 42,68 54,78" fill="#150835"/>
  <polygon points="76,56 86,68 74,78" fill="#150835"/>
  <polygon points="52,56 64,88 54,78" fill="#1a0840"/>
  <polygon points="76,56 64,88 74,78" fill="#1a0840"/>

  <!-- ═══ THROAT / UPPER FEATHERS ═══ -->
  <polygon points="26,66 4,72 14,86" fill="#150835"/>
  <polygon points="26,66 14,86 36,80" fill="#110730"/>
  <polygon points="42,68 26,66 36,80" fill="#150835"/>
  <polygon points="42,68 36,80 48,82" fill="#110730"/>
  <polygon points="102,66 124,72 114,86" fill="#150835"/>
  <polygon points="102,66 114,86 92,80" fill="#110730"/>
  <polygon points="86,68 102,66 92,80" fill="#150835"/>
  <polygon points="86,68 92,80 80,82" fill="#110730"/>
  <polygon points="54,78 42,68 48,82" fill="#110730"/>
  <polygon points="74,78 86,68 80,82" fill="#110730"/>
  <polygon points="54,78 48,82 58,88" fill="#0d0525"/>
  <polygon points="74,78 80,82 70,88" fill="#0d0525"/>
  <polygon points="54,78 64,88 58,88" fill="#150835"/>
  <polygon points="74,78 64,88 70,88" fill="#150835"/>

  <!-- ═══ FEATHER SPIKES (wide beard) ═══ -->
  <!-- Far outer -->
  <polygon points="4,72 14,86 0,90" fill="#110730"/>
  <polygon points="124,72 114,86 128,90" fill="#110730"/>
  <polygon points="0,90 14,86 4,108" fill="#0d0525"/>
  <polygon points="128,90 114,86 124,108" fill="#0d0525"/>
  <!-- Outer -->
  <polygon points="14,86 36,80 22,102" fill="#0d0525"/>
  <polygon points="14,86 22,102 6,106" fill="#0a0420"/>
  <polygon points="114,86 92,80 106,102" fill="#0d0525"/>
  <polygon points="114,86 106,102 122,106" fill="#0a0420"/>
  <!-- Mid outer -->
  <polygon points="36,80 48,82 38,104" fill="#0d0525"/>
  <polygon points="36,80 38,104 24,108" fill="#0a0420"/>
  <polygon points="92,80 80,82 90,104" fill="#0d0525"/>
  <polygon points="92,80 90,104 104,108" fill="#0a0420"/>
  <!-- Mid -->
  <polygon points="48,82 58,88 48,110" fill="#0a0420"/>
  <polygon points="48,82 48,110 36,112" fill="#0d0525"/>
  <polygon points="80,82 70,88 80,110" fill="#0a0420"/>
  <polygon points="80,82 80,110 92,112" fill="#0d0525"/>
  <!-- Inner -->
  <polygon points="58,88 64,88 60,114" fill="#0a0420"/>
  <polygon points="70,88 64,88 68,114" fill="#0a0420"/>
  <!-- Spike tips -->
  <polygon points="0,90 4,108 -2,112" fill="#0a0420"/>
  <polygon points="128,90 124,108 130,112" fill="#0a0420"/>
  <polygon points="6,106 22,102 12,120" fill="#0a0420"/>
  <polygon points="122,106 106,102 116,120" fill="#0a0420"/>
  <polygon points="24,108 38,104 28,124" fill="#0a0420"/>
  <polygon points="104,108 90,104 100,124" fill="#0a0420"/>
  <polygon points="36,112 48,110 40,128" fill="#0d0525"/>
  <polygon points="92,112 80,110 88,128" fill="#0d0525"/>
  <polygon points="48,110 60,114 52,128" fill="#0d0525"/>
  <polygon points="80,110 68,114 76,128" fill="#0d0525"/>
  <polygon points="60,114 64,100 64,128" fill="#0a0420"/>
  <polygon points="68,114 64,100 64,128" fill="#0a0420"/>

  <!-- ═══ EYES (small bright dots on sides) ═══ -->
  <circle cx="24" cy="46" r="4.5" fill="#a78bfa"/>
  <circle cx="24" cy="46" r="2.2" fill="#e0d4ff"/>
  <circle cx="104" cy="46" r="4.5" fill="#a78bfa"/>
  <circle cx="104" cy="46" r="2.2" fill="#e0d4ff"/>

</svg>
