<svg xmlns="http://www.w3.org/2000/svg" viewBox="0 0 630 630" width="128" height="128">
  <rect width="630" height="630" fill="#FF4F00"/>
  <g transform="translate(95, 60)">
    <path fill="#FFFFFF" d="M0 126.572C0.736768 124.993 0.892991 120.53 1.22303 118.525C7.18234 82.3278 32.5366 52.3717 67.2146 40.3546C82.5904 35.0263 94.0352 34.9273 110.331 34.9318L139.515 34.935L230.974 34.9353L308.081 34.929L332.275 34.9283C351.912 34.9315 365.1 36.0848 383.288 44.759C408.687 56.9488 427.81 79.2323 436.003 106.187C437.321 110.408 438.081 114.548 438.83 118.898C439.181 120.941 439.272 124.3 440 126.128L440 384.171C439.565 385.223 438.48 393.057 438.091 395.064C436.682 402.286 434.426 409.316 431.37 416.01C420.353 440.366 400.096 459.336 375.07 468.733C366.133 472.097 356.755 474.147 347.23 474.819C342.066 475.209 335.361 475.031 330.114 475.03L302.157 475.025L213.498 475.025L133.755 475.025L108.906 475.036C103.007 475.037 96.988 475.187 91.1258 474.64C79.7911 473.632 68.71 470.705 58.3557 465.985C32.5138 454.196 12.9194 431.954 4.48095 404.832C3.16193 400.615 2.28753 397.15 1.51986 392.799C1.10888 390.469 0.773282 385.46 0 383.66L0 126.572Z"/>
    <path fill="#000000" d="M185.668 98.8466C186.923 98.6432 192.328 98.7128 193.749 98.7129L209.933 98.7236L243.404 98.727C253.293 98.7245 262.204 98.46 272.039 99.9225C293.431 103.103 313.268 116.807 319.287 138.493C320.497 143.025 321.152 147.688 321.239 152.378C321.319 157.913 320.305 164.029 319.613 169.5C317.948 182.664 316.59 194.648 309.848 206.432C300.457 222.845 288.709 231.5 270.768 236.493C273.07 236.882 275.333 237.478 277.528 238.274C290.305 242.827 299.567 251.235 305.323 263.6C307.94 269.238 309.503 275.306 309.934 281.506C310.538 289.192 309.436 295.535 308.497 303.083C307.174 313.728 306.015 322.404 302.405 332.581C296.04 350.526 282.579 366.296 265.174 374.376C258.825 377.299 252.123 379.383 245.237 380.576C232.125 382.93 215.044 382.156 201.601 381.908C194.421 381.775 187.997 377.995 185.029 371.198C183.084 366.815 183.021 361.826 184.853 357.394C188.711 347.932 195.276 346.888 204.212 346.483C216.441 345.93 229.482 347.666 240.928 342.688C252.026 337.861 259.315 329.434 263.793 318.31C266.087 311.533 266.538 305.654 267.504 298.658C268.213 293.747 268.988 288.954 269.12 283.99C269.495 269.852 259.328 258.816 245.721 256.142C237.357 254.499 228.049 255.005 219.427 255.002L184.404 254.991C180.196 288.347 174.744 322.232 169.984 355.552L164.843 391.815C163.948 398.208 163.145 404.84 161.991 411.185C161.567 413.512 159.903 416.612 158.455 418.481C155.094 422.853 150.123 425.698 144.65 426.38C139.252 426.957 133.844 425.373 129.61 421.974C119.288 413.693 122.355 403.007 123.941 391.717L126.985 370.154L136.366 300.837L153.689 178.757L159.063 141.004C160.04 134.05 160.924 127.049 162.078 120.125C164.003 108.57 174.268 100.053 185.668 98.8466Z"/>
    <path fill="#FFFFFF" d="M201.438 134.736L233.346 134.743C247.972 134.746 264.454 133.245 274.56 146.277C280.374 153.775 280.459 162.168 279.282 171.153C276.876 189.534 276.151 202.503 260.148 214.727C247.294 223.184 237.527 221.741 223.081 221.741L189.162 221.706L201.438 134.736Z"/>
  </g>
</svg>
