<svg width="128" height="128" viewBox="0 0 128 128" fill="none" xmlns="http://www.w3.org/2000/svg">

  <!-- ═══ WINGS (back layer, folded against body) ═══ -->
  <!-- Left wing -->
  <polygon points="20,60 10,78 30,72" fill="#0a0420"/>
  <polygon points="20,60 30,72 44,58" fill="#0d0525"/>
  <polygon points="10,78 6,96 24,92" fill="#050213"/>
  <polygon points="10,78 24,92 30,72" fill="#0a0420"/>
  <polygon points="30,72 24,92 40,88" fill="#0d0525"/>
  <polygon points="30,72 40,88 44,58" fill="#150835"/>
  <polygon points="6,96 24,92 16,106" fill="#050213"/>
  <polygon points="24,92 40,88 32,104" fill="#0a0420"/>
  <polygon points="40,88 48,72 44,58" fill="#0d0525"/>
  <polygon points="40,88 32,104 44,98" fill="#0a0420"/>

  <!-- Right wing -->
  <polygon points="108,60 118,78 98,72" fill="#0a0420"/>
  <polygon points="108,60 98,72 84,58" fill="#0d0525"/>
  <polygon points="118,78 122,96 104,92" fill="#050213"/>
  <polygon points="118,78 104,92 98,72" fill="#0a0420"/>
  <polygon points="98,72 104,92 88,88" fill="#0d0525"/>
  <polygon points="98,72 88,88 84,58" fill="#150835"/>
  <polygon points="122,96 104,92 112,106" fill="#050213"/>
  <polygon points="104,92 88,88 96,104" fill="#0a0420"/>
  <polygon points="88,88 80,72 84,58" fill="#0d0525"/>
  <polygon points="88,88 96,104 84,98" fill="#0a0420"/>

  <!-- ═══ NECK / SHOULDERS ═══ -->
  <polygon points="32,52 20,60 44,58" fill="#150835"/>
  <polygon points="96,52 108,60 84,58" fill="#150835"/>
  <polygon points="32,52 44,58 40,42" fill="#1e0a4a"/>
  <polygon points="96,52 84,58 88,42" fill="#1e0a4a"/>

  <!-- ═══ CHEST CENTER ═══ -->
  <polygon points="44,58 64,54 48,70" fill="#1e0a4a"/>
  <polygon points="84,58 64,54 80,70" fill="#1e0a4a"/>
  <polygon points="64,54 48,70 64,76" fill="#251055"/>
  <polygon points="64,54 80,70 64,76" fill="#2d1466"/>
  <polygon points="48,70 64,76 48,86" fill="#1e0a4a"/>
  <polygon points="80,70 64,76 80,86" fill="#1e0a4a"/>
  <polygon points="44,58 48,70 40,88" fill="#150835"/>
  <polygon points="84,58 80,70 88,88" fill="#150835"/>

  <!-- ═══ BELLY ═══ -->
  <polygon points="48,70 48,86 40,88" fill="#150835"/>
  <polygon points="80,70 80,86 88,88" fill="#150835"/>
  <polygon points="48,86 64,76 64,90" fill="#1e0a4a"/>
  <polygon points="80,86 64,76 64,90" fill="#1e0a4a"/>
  <polygon points="48,86 64,90 56,98" fill="#150835"/>
  <polygon points="80,86 64,90 72,98" fill="#150835"/>
  <polygon points="40,88 48,86 44,98" fill="#0d0525"/>
  <polygon points="88,88 80,86 84,98" fill="#0d0525"/>
  <polygon points="44,98 48,86 56,98" fill="#0a0420"/>
  <polygon points="84,98 80,86 72,98" fill="#0a0420"/>
  <polygon points="56,98 64,90 64,102" fill="#0d0525"/>
  <polygon points="72,98 64,90 64,102" fill="#0d0525"/>
  <polygon points="56,98 64,102 50,104" fill="#0a0420"/>
  <polygon points="72,98 64,102 78,104" fill="#0a0420"/>

  <!-- ═══ HEAD CROWN ═══ -->
  <polygon points="64,4 50,14 64,22" fill="#0d0525"/>
  <polygon points="64,4 78,14 64,22" fill="#150835"/>
  <polygon points="50,14 38,22 54,26" fill="#0a0420"/>
  <polygon points="78,14 90,22 74,26" fill="#0a0420"/>
  <polygon points="50,14 54,26 64,22" fill="#150835"/>
  <polygon points="78,14 74,26 64,22" fill="#1e0a4a"/>

  <!-- ═══ HEAD SIDES ═══ -->
  <polygon points="38,22 28,36 50,34" fill="#0a0420"/>
  <polygon points="38,22 50,34 54,26" fill="#0d0525"/>
  <polygon points="90,22 100,36 78,34" fill="#0a0420"/>
  <polygon points="90,22 78,34 74,26" fill="#0d0525"/>

  <!-- ═══ CHEEKS / EYE AREA ═══ -->
  <polygon points="28,36 32,52 50,44" fill="#0d0525"/>
  <polygon points="28,36 50,44 50,34" fill="#150835"/>
  <polygon points="100,36 96,52 78,44" fill="#0d0525"/>
  <polygon points="100,36 78,44 78,34" fill="#150835"/>
  <polygon points="50,34 50,44 54,26" fill="#1e0a4a"/>
  <polygon points="78,34 78,44 74,26" fill="#1e0a4a"/>
  <polygon points="32,52 50,44 40,42" fill="#150835"/>
  <polygon points="96,52 78,44 88,42" fill="#150835"/>
  <polygon points="50,44 54,26 60,38" fill="#251055"/>
  <polygon points="78,44 74,26 68,38" fill="#251055"/>
  <polygon points="50,44 60,38 40,42" fill="#1e0a4a"/>
  <polygon points="78,44 68,38 88,42" fill="#1e0a4a"/>

  <!-- ═══ FOREHEAD CENTER ═══ -->
  <polygon points="64,22 54,26 64,32" fill="#1e0a4a"/>
  <polygon points="64,22 74,26 64,32" fill="#251055"/>
  <polygon points="54,26 60,38 64,32" fill="#1e0a4a"/>
  <polygon points="74,26 68,38 64,32" fill="#1e0a4a"/>

  <!-- ═══ BEAK (sharp, forward-pointing) ═══ -->
  <polygon points="60,38 64,32 68,38" fill="#3f3f4a"/>
  <polygon points="60,38 68,38 64,46" fill="#2d2d3a"/>
  <polygon points="60,38 64,46 56,46" fill="#52525e"/>
  <polygon points="68,38 64,46 72,46" fill="#3f3f4a"/>
  <polygon points="56,46 64,46 60,56" fill="#3f3f4a"/>
  <polygon points="72,46 64,46 68,56" fill="#2d2d3a"/>
  <polygon points="60,56 64,46 64,62" fill="#2d2d3a"/>
  <polygon points="68,56 64,46 64,62" fill="#1f1f2a"/>
  <polygon points="60,56 64,62 56,46" fill="#1f1f2a"/>
  <polygon points="68,56 64,62 72,46" fill="#2d2d3a"/>

  <!-- ═══ EYES ═══ -->
  <circle cx="42" cy="38" r="3.5" fill="#0ea5e9"/>
  <circle cx="42" cy="38" r="1.6" fill="#e0d4ff"/>
  <circle cx="86" cy="38" r="3.5" fill="#0ea5e9"/>
  <circle cx="86" cy="38" r="1.6" fill="#e0d4ff"/>

  <!-- ═══ KEY (gold, horizontal) ═══ -->
  <!-- Bow octagonal head (left side) -->
  <polygon points="24,104 32,110 24,116 16,110" fill="#fbbf24"/>
  <polygon points="32,110 34,116 24,116" fill="#f59e0b"/>
  <polygon points="16,110 14,116 24,116" fill="#fde047"/>
  <polygon points="24,116 32,122 24,128" fill="#d97706"/>
  <polygon points="24,116 16,122 24,128" fill="#b45309"/>
  <polygon points="32,122 34,116 24,116" fill="#b45309"/>
  <polygon points="16,122 14,116 24,116" fill="#92400e"/>

  <!-- Bow inner hole -->
  <polygon points="20,113 28,113 24,116" fill="#451a03"/>
  <polygon points="20,119 28,119 24,116" fill="#451a03"/>
  <polygon points="20,113 20,119 24,116" fill="#451a03"/>
  <polygon points="28,113 28,119 24,116" fill="#451a03"/>

  <!-- Shaft -->
  <polygon points="32,114 100,114 100,116" fill="#fde047"/>
  <polygon points="32,114 32,116 100,116" fill="#fbbf24"/>
  <polygon points="32,116 100,116 100,118 32,118" fill="#d97706"/>

  <!-- Bit teeth (right end) -->
  <polygon points="92,118 98,118 98,124 92,124" fill="#d97706"/>
  <polygon points="100,118 106,118 106,122 100,122" fill="#b45309"/>
  <polygon points="100,113 106,113 106,118 100,118" fill="#fbbf24"/>

  <!-- ═══ LEGS ═══ -->
  <polygon points="54,98 50,108 58,106" fill="#3f3f4a"/>
  <polygon points="54,98 58,106 64,102" fill="#52525e"/>
  <polygon points="74,98 78,108 70,106" fill="#3f3f4a"/>
  <polygon points="74,98 70,106 64,102" fill="#52525e"/>

  <!-- ═══ CLAWS (3 toes per foot, gripping key shaft) ═══ -->
  <!-- Left foot -->
  <polygon points="50,108 44,118 48,109" fill="#2d2d3a"/>
  <polygon points="50,108 52,118 56,109" fill="#3f3f4a"/>
  <polygon points="58,106 60,118 64,108" fill="#52525e"/>

  <!-- Right foot -->
  <polygon points="78,108 84,118 80,109" fill="#2d2d3a"/>
  <polygon points="78,108 76,118 72,109" fill="#3f3f4a"/>
  <polygon points="70,106 68,118 64,108" fill="#52525e"/>

</svg>
