<svg width="400" height="400" viewBox="0 0 400 400" fill="none" xmlns="http://www.w3.org/2000/svg">

  <!-- ═══ CROWN (wide dome) ═══ -->
  <polygon points="125,16 200,10 275,16 200,44" fill="#7c3aed"/>
  <polygon points="125,16 69,38 138,56" fill="#6d28d9"/>
  <polygon points="275,16 331,38 262,56" fill="#6d28d9"/>
  <polygon points="125,16 138,56 200,44" fill="#5b21b6"/>
  <polygon points="275,16 262,56 200,44" fill="#5b21b6"/>

  <!-- ═══ UPPER HEAD (wide) ═══ -->
  <polygon points="69,38 38,81 113,81" fill="#4c1d95"/>
  <polygon points="69,38 113,81 138,56" fill="#5b21b6"/>
  <polygon points="331,38 362,81 287,81" fill="#4c1d95"/>
  <polygon points="331,38 287,81 262,56" fill="#5b21b6"/>
  <polygon points="138,56 113,81 175,94" fill="#3b1580"/>
  <polygon points="262,56 287,81 225,94" fill="#3b1580"/>
  <polygon points="138,56 175,94 200,44" fill="#4c1d95"/>
  <polygon points="262,56 225,94 200,44" fill="#4c1d95"/>
  <!-- Forehead center V (dark mask) -->
  <polygon points="200,44 175,94 200,88" fill="#3b1580"/>
  <polygon points="200,44 225,94 200,88" fill="#3b1580"/>

  <!-- ═══ BROW / MASK AREA ═══ -->
  <polygon points="38,81 19,131 94,125" fill="#2e1065"/>
  <polygon points="38,81 94,125 113,81" fill="#2e1065"/>
  <polygon points="362,81 381,131 306,125" fill="#2e1065"/>
  <polygon points="362,81 306,125 287,81" fill="#2e1065"/>
  <!-- Dark V mask -->
  <polygon points="113,81 94,125 150,119" fill="#1e0a4a"/>
  <polygon points="113,81 150,119 175,94" fill="#251055"/>
  <polygon points="287,81 306,125 250,119" fill="#1e0a4a"/>
  <polygon points="287,81 250,119 225,94" fill="#251055"/>

  <!-- ═══ BEAK (large, dominant) ═══ -->
  <!-- Upper beak / cere -->
  <polygon points="175,94 200,88 188,138" fill="#9494a6"/>
  <polygon points="225,94 200,88 212,138" fill="#8a8a9c"/>
  <polygon points="188,138 200,88 212,138" fill="#7a7a8c"/>
  <!-- Wide beak flanges -->
  <polygon points="175,94 188,138 144,131" fill="#7a7a8c"/>
  <polygon points="225,94 212,138 256,131" fill="#6b6b7d"/>
  <polygon points="144,131 188,138 163,175" fill="#5e5e6e"/>
  <polygon points="256,131 212,138 237,175" fill="#52525e"/>
  <!-- Beak ridge -->
  <polygon points="188,138 212,138 200,188" fill="#6b6b7d"/>
  <!-- Lower beak -->
  <polygon points="163,175 188,138 200,188" fill="#52525e"/>
  <polygon points="237,175 212,138 200,188" fill="#4a4a56"/>
  <polygon points="163,175 200,188 200,275" fill="#3f3f4a"/>
  <polygon points="237,175 200,188 200,275" fill="#353540"/>

  <!-- ═══ CHEEKS ═══ -->
  <polygon points="94,125 19,131 25,181" fill="#1e0a4a"/>
  <polygon points="94,125 25,181 100,169" fill="#1a0840"/>
  <polygon points="150,119 94,125 100,169" fill="#1e0a4a"/>
  <polygon points="150,119 100,169 144,131" fill="#251055"/>
  <polygon points="306,125 381,131 375,181" fill="#1e0a4a"/>
  <polygon points="306,125 375,181 300,169" fill="#1a0840"/>
  <polygon points="250,119 306,125 300,169" fill="#1e0a4a"/>
  <polygon points="250,119 300,169 256,131" fill="#251055"/>

  <!-- ═══ LOWER CHEEKS ═══ -->
  <polygon points="25,181 12,225 81,206" fill="#1a0840"/>
  <polygon points="25,181 81,206 100,169" fill="#1e0a4a"/>
  <polygon points="375,181 388,225 319,206" fill="#1a0840"/>
  <polygon points="375,181 319,206 300,169" fill="#1e0a4a"/>
  <polygon points="100,169 81,206 131,213" fill="#150835"/>
  <polygon points="100,169 131,213 144,131" fill="#1e0a4a"/>
  <polygon points="300,169 319,206 269,213" fill="#150835"/>
  <polygon points="300,169 269,213 256,131" fill="#1e0a4a"/>

  <!-- ═══ CHIN / BELOW BEAK ═══ -->
  <polygon points="144,131 131,213 163,175" fill="#1e0a4a"/>
  <polygon points="256,131 269,213 237,175" fill="#1e0a4a"/>
  <polygon points="163,175 131,213 169,244" fill="#150835"/>
  <polygon points="237,175 269,213 231,244" fill="#150835"/>
  <polygon points="163,175 200,275 169,244" fill="#1a0840"/>
  <polygon points="237,175 200,275 231,244" fill="#1a0840"/>

  <!-- ═══ THROAT FEATHERS ═══ -->
  <polygon points="81,206 12,225 44,269" fill="#150835"/>
  <polygon points="81,206 44,269 113,250" fill="#110730"/>
  <polygon points="131,213 81,206 113,250" fill="#150835"/>
  <polygon points="131,213 113,250 150,256" fill="#110730"/>
  <polygon points="319,206 388,225 356,269" fill="#150835"/>
  <polygon points="319,206 356,269 287,250" fill="#110730"/>
  <polygon points="269,213 319,206 287,250" fill="#150835"/>
  <polygon points="269,213 287,250 250,256" fill="#110730"/>
  <polygon points="169,244 131,213 150,256" fill="#110730"/>
  <polygon points="231,244 269,213 250,256" fill="#110730"/>
  <polygon points="169,244 150,256 181,275" fill="#0d0525"/>
  <polygon points="231,244 250,256 219,275" fill="#0d0525"/>
  <polygon points="169,244 200,275 181,275" fill="#150835"/>
  <polygon points="231,244 200,275 219,275" fill="#150835"/>

  <!-- ═══ FEATHER SPIKES ═══ -->
  <!-- Far outer -->
  <polygon points="12,225 44,269 0,281" fill="#110730"/>
  <polygon points="388,225 356,269 400,281" fill="#110730"/>
  <polygon points="0,281 44,269 12,338" fill="#0d0525"/>
  <polygon points="400,281 356,269 388,338" fill="#0d0525"/>
  <!-- Outer -->
  <polygon points="44,269 113,250 69,319" fill="#0d0525"/>
  <polygon points="44,269 69,319 19,331" fill="#0a0420"/>
  <polygon points="356,269 287,250 331,319" fill="#0d0525"/>
  <polygon points="356,269 331,319 381,331" fill="#0a0420"/>
  <!-- Mid outer -->
  <polygon points="113,250 150,256 119,325" fill="#0d0525"/>
  <polygon points="113,250 119,325 75,338" fill="#0a0420"/>
  <polygon points="287,250 250,256 281,325" fill="#0d0525"/>
  <polygon points="287,250 281,325 325,338" fill="#0a0420"/>
  <!-- Mid -->
  <polygon points="150,256 181,275 150,344" fill="#0a0420"/>
  <polygon points="150,256 150,344 113,350" fill="#0d0525"/>
  <polygon points="250,256 219,275 250,344" fill="#0a0420"/>
  <polygon points="250,256 250,344 287,350" fill="#0d0525"/>
  <!-- Inner -->
  <polygon points="181,275 200,275 188,356" fill="#0a0420"/>
  <polygon points="219,275 200,275 212,356" fill="#0a0420"/>
  <!-- Spike tips -->
  <polygon points="19,331 69,319 38,375" fill="#0a0420"/>
  <polygon points="381,331 331,319 362,375" fill="#0a0420"/>
  <polygon points="75,338 119,325 88,388" fill="#0a0420"/>
  <polygon points="325,338 281,325 312,388" fill="#0a0420"/>
  <polygon points="113,350 150,344 125,400" fill="#0d0525"/>
  <polygon points="287,350 250,344 275,400" fill="#0d0525"/>
  <polygon points="150,344 188,356 163,400" fill="#0d0525"/>
  <polygon points="250,344 212,356 237,400" fill="#0d0525"/>
  <polygon points="188,356 200,313 200,400" fill="#0a0420"/>
  <polygon points="212,356 200,313 200,400" fill="#0a0420"/>

  <!-- ═══ EYES ═══ -->
  <circle cx="75" cy="144" r="14" fill="#a78bfa"/>
  <circle cx="75" cy="144" r="7" fill="#e0d4ff"/>
  <circle cx="325" cy="144" r="14" fill="#a78bfa"/>
  <circle cx="325" cy="144" r="7" fill="#e0d4ff"/>

</svg>
